<?xml version="1.0" encoding="UTF-8"?><svg id="a" xmlns="http://www.w3.org/2000/svg" xmlns:xlink="http://www.w3.org/1999/xlink" viewBox="0 0 372.66 386.96"><defs><linearGradient id="b" x1="61.63" y1="370.75" x2="61.63" y2="108.27" gradientUnits="userSpaceOnUse"><stop offset=".49" stop-color="#163f60"/><stop offset="1" stop-color="#3c79b6"/></linearGradient><linearGradient id="c" x1="111.88" y1="386.96" x2="111.88" y2="33.8" xlink:href="#b"/><linearGradient id="d" x1="311.04" y1="370.75" x2="311.04" y2="108.27" xlink:href="#b"/><linearGradient id="e" x1="260.79" y1="386.96" x2="260.79" y2="33.76" xlink:href="#b"/><linearGradient id="f" x1="186.49" y1="101.32" x2="186.49" y2="0" gradientUnits="userSpaceOnUse"><stop offset="0" stop-color="#000"/><stop offset="0" stop-color="#3771aa"/></linearGradient></defs><path d="M123.17,308.43c.17,16.28.01,32.6.08,48.92-.06,3.4.23,7.3-.83,10.47-1.81,4.95-7.39,2.45-10.87.91-9.39-4.29-18.33-9.34-26.88-15.13C9.76,303.05-18.98,198.61,12.77,114.94c4.21-11.1,8.59-6.87,12,2,16.36,34.9,51.52,54.04,78.04,80.24,14.8,14.76,19.17,36.42,19.61,56.83.73,18.04.11,36.22.75,54.23v.2Z" fill="url(#b)"/><path d="M181.41,276.78c.08,32.71.12,65.46,0,98.2.33,10.33-4.73,13.4-15.18,11.4-9.01-.91-17-4.51-16.45-14.9-.25-41.18.27-82.33-.27-123.53-.08-11.93-.96-24.29-5.02-35.54-6.5-20.32-23.16-34.52-38.77-48.03-23.29-20.14-51.74-37.49-60.2-69.12-2.18-10.49-6.86-24.16,1.74-32.86,7.44-8.72,15.81-16.51,24.11-24.38,6.56-6.63,10.53-5.49,12.5,3.69,6.62,25.06,25.56,42.73,45.13,58.44,18.29,14.07,39.43,27.68,47.46,50.5,3.4,8.92,4.67,18.57,4.8,28.13.43,32.6,0,65.23.16,97.81v.2Z" fill="url(#c)"/><path d="M249.49,308.43c-.17,16.28-.01,32.6-.08,48.92.06,3.4-.23,7.3.83,10.47,1.81,4.95,7.39,2.45,10.87.91,9.39-4.29,18.33-9.34,26.88-15.13,74.92-50.56,103.66-155,71.9-238.67-4.21-11.1-8.59-6.87-12,2-16.36,34.9-51.52,54.04-78.04,80.24-14.8,14.76-19.17,36.42-19.61,56.83-.73,18.04-.11,36.22-.75,54.23v.2Z" fill="url(#d)"/><path d="M191.25,276.78c-.08,32.71-.12,65.46,0,98.2-.33,10.33,4.73,13.4,15.18,11.4,9.01-.91,17-4.51,16.45-14.9.25-41.18-.27-82.33.27-123.53.08-11.93.96-24.29,5.02-35.54,6.5-20.32,23.16-34.52,38.77-48.03,23.29-20.14,51.74-37.49,60.2-69.12,2.18-10.49,6.86-24.16-1.74-32.86-7.44-8.72-15.81-16.51-24.11-24.38-6.7-6.65-10.41-5.58-12.5,3.69-6.62,25.06-25.56,42.73-45.13,58.44-18.29,14.07-39.43,27.68-47.46,50.5-3.4,8.92-4.67,18.57-4.8,28.13-.43,32.6,0,65.23-.16,97.81v.2Z" fill="url(#e)"/><path d="M237.14,50.77c.35,26.99-22.62,50.4-49.61,50.52-29.18.92-53.57-24.5-51.59-53.52,1.33-28.2,26.77-50.2,54.89-47.56,25.92,2,46.43,24.37,46.3,50.35v.2Z" fill="url(#f)"/></svg>