<?xml version="1.0" encoding="UTF-8"?><svg id="a" xmlns="http://www.w3.org/2000/svg" xmlns:xlink="http://www.w3.org/1999/xlink" viewBox="0 0 1093.77 386.96"><defs><linearGradient id="b" x1="61.63" y1="370.75" x2="61.63" y2="108.27" gradientUnits="userSpaceOnUse"><stop offset=".49" stop-color="#163f60"/><stop offset="1" stop-color="#3c79b6"/></linearGradient><linearGradient id="c" x1="111.88" y1="386.96" x2="111.88" y2="33.8" xlink:href="#b"/><linearGradient id="d" x1="311.04" y1="370.75" x2="311.04" y2="108.27" xlink:href="#b"/><linearGradient id="e" x1="260.79" y1="386.96" x2="260.79" y2="33.76" xlink:href="#b"/><linearGradient id="f" x1="186.49" y1="101.32" x2="186.49" y2="0" gradientUnits="userSpaceOnUse"><stop offset="0" stop-color="#000"/><stop offset="0" stop-color="#3771aa"/></linearGradient><linearGradient id="g" x1="423.72" y1="191.44" x2="513.69" y2="191.44" xlink:href="#b"/><linearGradient id="h" x1="526.6" y1="202.52" x2="592.19" y2="202.52" xlink:href="#b"/><linearGradient id="i" x1="610.54" y1="213.23" x2="676.13" y2="213.23" xlink:href="#b"/><linearGradient id="j" x1="685.32" y1="202.52" x2="783.42" y2="202.52" xlink:href="#b"/><linearGradient id="k" x1="790.24" y1="202" x2="822.08" y2="202" xlink:href="#b"/><linearGradient id="l" x1="836.15" y1="191.44" x2="889.35" y2="191.44" xlink:href="#b"/><linearGradient id="m" x1="901.97" y1="202.52" x2="967.68" y2="202.52" xlink:href="#b"/><linearGradient id="n" x1="979.72" y1="202.52" x2="1043.81" y2="202.52" xlink:href="#b"/><linearGradient id="o" x1="1052.32" y1="202.52" x2="1093.77" y2="202.52" xlink:href="#b"/></defs><path d="M123.17,308.43c.17,16.28.01,32.6.08,48.92-.06,3.4.23,7.3-.83,10.47-1.81,4.95-7.39,2.45-10.87.91-9.39-4.29-18.33-9.34-26.88-15.13C9.76,303.05-18.98,198.61,12.77,114.94c4.21-11.1,8.59-6.87,12,2,16.36,34.9,51.52,54.04,78.04,80.24,14.8,14.76,19.17,36.42,19.61,56.83.73,18.04.11,36.22.75,54.23v.2Z" fill="url(#b)"/><path d="M181.41,276.78c.08,32.71.12,65.46,0,98.2.33,10.33-4.73,13.4-15.18,11.4-9.01-.91-17-4.51-16.45-14.9-.25-41.18.27-82.33-.27-123.53-.08-11.93-.96-24.29-5.02-35.54-6.5-20.32-23.16-34.52-38.77-48.03-23.29-20.14-51.74-37.49-60.2-69.12-2.18-10.49-6.86-24.16,1.74-32.86,7.44-8.72,15.81-16.51,24.11-24.38,6.56-6.63,10.53-5.49,12.5,3.69,6.62,25.06,25.56,42.73,45.13,58.44,18.29,14.07,39.43,27.68,47.46,50.5,3.4,8.92,4.67,18.57,4.8,28.13.43,32.6,0,65.23.16,97.81v.2Z" fill="url(#c)"/><path d="M249.49,308.43c-.17,16.28-.01,32.6-.08,48.92.06,3.4-.23,7.3.83,10.47,1.81,4.95,7.39,2.45,10.87.91,9.39-4.29,18.33-9.34,26.88-15.13,74.92-50.56,103.66-155,71.9-238.67-4.21-11.1-8.59-6.87-12,2-16.36,34.9-51.52,54.04-78.04,80.24-14.8,14.76-19.17,36.42-19.61,56.83-.73,18.04-.11,36.22-.75,54.23v.2Z" fill="url(#d)"/><path d="M191.25,276.78c-.08,32.71-.12,65.46,0,98.2-.33,10.33,4.73,13.4,15.18,11.4,9.01-.91,17-4.51,16.45-14.9.25-41.18-.27-82.33.27-123.53.08-11.93.96-24.29,5.02-35.54,6.5-20.32,23.16-34.52,38.77-48.03,23.29-20.14,51.74-37.49,60.2-69.12,2.18-10.49,6.86-24.16-1.74-32.86-7.44-8.72-15.81-16.51-24.11-24.38-6.7-6.65-10.41-5.58-12.5,3.69-6.62,25.06-25.56,42.73-45.13,58.44-18.29,14.07-39.43,27.68-47.46,50.5-3.4,8.92-4.67,18.57-4.8,28.13-.43,32.6,0,65.23-.16,97.81v.2Z" fill="url(#e)"/><path d="M237.14,50.77c.35,26.99-22.62,50.4-49.61,50.52-29.18.92-53.57-24.5-51.59-53.52,1.33-28.2,26.77-50.2,54.89-47.56,25.92,2,46.43,24.37,46.3,50.35v.2Z" fill="url(#f)"/><path d="M464.48,148.85h8.51v10.88h6.54c12.81,0,21.71,2.5,26.69,7.5s7.47,10.99,7.47,17.98c0,6.37-2.19,12.03-6.57,16.99-4.38,4.96-12.69,7.44-24.92,7.44h-9.2v24.37h-8.51v-24.37h-9.16c-6.5,0-11.87-.63-16.12-1.88s-7.89-3.94-10.93-8.05-4.55-8.94-4.55-14.5c0-6.95,2.47-12.93,7.42-17.95,4.95-5.02,13.9-7.53,26.84-7.53h6.49v-10.88ZM464.48,167.96h-9.57c-7,0-12.48,1.48-16.44,4.43s-5.94,7.17-5.94,12.65c0,4.71,1.57,8.63,4.7,11.75,3.13,3.13,7.81,4.69,14.04,4.69l4.29-.06h8.93v-33.46ZM472.99,167.96v33.46h8.97l4.57.06c5.94,0,10.49-1.55,13.63-4.66,3.15-3.11,4.72-7.01,4.72-11.72,0-5.21-1.85-9.37-5.56-12.48s-9.3-4.66-16.79-4.66h-9.55Z" fill="url(#g)"/><path d="M592.19,171.03v62.99h-7.99v-10.83c-3.4,4.13-7.21,7.24-11.43,9.32s-8.85,3.13-13.87,3.13c-8.92,0-16.53-3.23-22.84-9.7-6.31-6.46-9.47-14.33-9.47-23.59s3.18-16.83,9.55-23.27,14.03-9.67,22.98-9.67c5.17,0,9.85,1.1,14.04,3.3s7.86,5.5,11.03,9.9v-11.58h7.99ZM559.8,177.22c-4.51,0-8.67,1.11-12.49,3.32-3.82,2.22-6.85,5.33-9.11,9.34-2.25,4.01-3.38,8.25-3.38,12.72s1.14,8.67,3.41,12.72c2.27,4.05,5.33,7.2,9.16,9.45s7.95,3.38,12.35,3.38,8.64-1.12,12.61-3.35c3.97-2.24,7.02-5.26,9.16-9.08,2.14-3.82,3.21-8.12,3.21-12.9,0-7.28-2.4-13.38-7.2-18.27s-10.71-7.34-17.72-7.34Z" fill="url(#h)"/><path d="M610.54,171.03h8.1v11.58c3.2-4.4,6.88-7.7,11.05-9.9s8.81-3.3,13.94-3.3c8.94,0,16.6,3.22,22.96,9.67,6.36,6.45,9.54,14.2,9.54,23.27s-3.15,17.13-9.46,23.59c-6.3,6.46-13.91,9.7-22.82,9.7-5.01,0-9.62-1.04-13.82-3.13-4.2-2.08-8-5.19-11.39-9.32v33.87h-8.1v-86.03ZM642.96,177.22c-7.01,0-12.91,2.45-17.7,7.34s-7.19,10.99-7.19,18.27c0,4.78,1.07,9.08,3.21,12.9,2.14,3.82,5.2,6.84,9.18,9.08,3.98,2.24,8.19,3.35,12.62,3.35s8.44-1.13,12.27-3.38,6.88-5.41,9.15-9.45c2.27-4.05,3.41-8.29,3.41-12.72s-1.13-8.71-3.38-12.72c-2.25-4.01-5.29-7.12-9.1-9.34-3.81-2.22-7.97-3.32-12.48-3.32Z" fill="url(#i)"/><path d="M759.71,171.03h2.32l21.4,62.99h-8.45l-15.62-46.34-24.23,46.34h-1.51l-24.29-46.4-15.56,46.4h-8.45l21.53-62.99h2.2l25.38,49.28,25.28-49.28Z" fill="url(#j)"/><path d="M790.24,198.47h31.84v7.06h-31.84v-7.06Z" fill="url(#k)"/><path d="M836.15,148.85h16.96c9.73,0,16.29.42,19.68,1.27,4.86,1.2,8.84,3.66,11.93,7.38,3.09,3.72,4.63,8.4,4.63,14.04s-1.51,10.35-4.52,14.04c-3.01,3.69-7.16,6.17-12.45,7.44-3.86.93-11.08,1.39-21.65,1.39h-6.08v39.6h-8.51v-85.16ZM844.66,157.19v28.89l14.42.17c5.83,0,10.09-.53,12.79-1.59s4.82-2.77,6.37-5.14c1.54-2.37,2.32-5.02,2.32-7.94s-.77-5.46-2.32-7.83c-1.54-2.37-3.58-4.05-6.11-5.05s-6.67-1.5-12.42-1.5h-15.05Z" fill="url(#l)"/><path d="M934.86,169.41c9.7,0,17.75,3.51,24.13,10.54,5.8,6.41,8.7,13.99,8.7,22.75s-3.06,16.49-9.19,23.07c-6.13,6.58-14.01,9.87-23.63,9.87s-17.56-3.29-23.69-9.87c-6.13-6.58-9.19-14.27-9.19-23.07s2.9-16.29,8.7-22.69c6.38-7.06,14.44-10.59,24.18-10.59ZM934.83,177.34c-6.74,0-12.53,2.49-17.37,7.47s-7.26,11-7.26,18.06c0,4.55,1.1,8.8,3.31,12.74,2.21,3.94,5.19,6.98,8.95,9.12s7.88,3.21,12.38,3.21,8.62-1.07,12.38-3.21c3.76-2.14,6.74-5.18,8.95-9.12s3.31-8.18,3.31-12.74c0-7.06-2.43-13.08-7.29-18.06s-10.64-7.47-17.34-7.47Z" fill="url(#m)"/><path d="M1043.81,184.11l-6.43,3.99c-5.55-7.37-13.13-11.06-22.72-11.06-7.67,0-14.04,2.47-19.11,7.4s-7.6,10.93-7.6,17.98c0,4.59,1.17,8.91,3.5,12.95,2.33,4.05,5.53,7.19,9.6,9.42,4.07,2.24,8.63,3.35,13.68,3.35,9.25,0,16.81-3.69,22.67-11.06l6.43,4.23c-3.01,4.53-7.05,8.05-12.13,10.55-5.08,2.5-10.85,3.75-17.34,3.75-9.96,0-18.22-3.16-24.78-9.49s-9.84-14.03-9.84-23.1c0-6.1,1.53-11.76,4.6-16.99s7.28-9.31,12.65-12.24c5.36-2.93,11.37-4.4,18-4.4,4.17,0,8.19.64,12.07,1.91s7.17,2.93,9.87,4.98,5,4.65,6.89,7.82Z" fill="url(#n)"/><path d="M1052.32,171.03h41.45v7.01h-16.67v55.98h-8.1v-55.98h-16.67v-7.01Z" fill="url(#o)"/></svg>